<svg width="68" height="32" viewBox="0 0 68 32" fill="none" xmlns="http://www.w3.org/2000/svg">
<path d="M7.71058 20.8125C9.45177 20.0891 10.3204 18.7426 10.3204 16.777C10.3204 15.2404 9.84647 14.1131 8.89601 13.3936C7.94292 12.6729 6.41031 12.3125 4.29686 12.3125H0V25.611H2.91342V21.3696H4.3127C4.63084 21.3696 4.86845 21.3643 5.0295 21.3498L7.36208 25.6097H10.6425L7.71058 20.8125ZM6.69808 18.6819C6.23209 19.0132 5.47965 19.1796 4.43943 19.1796H2.89757V14.7573H4.43943C5.47965 14.7573 6.23209 14.9236 6.69808 15.2616C7.16671 15.5955 7.39904 16.1645 7.39904 16.9724C7.39772 17.7816 7.16539 18.3505 6.69808 18.6819Z" fill="white"/>
<path d="M53.8059 25.9222L51.604 22.3223L50.8753 21.1289C52.0224 20.6524 52.7894 19.9079 53.1775 18.8888C53.3834 18.3634 53.4838 17.7641 53.4838 17.0921C53.4838 15.5556 53.0098 14.4282 52.0607 13.7075C51.3241 13.1517 50.2403 12.8098 48.808 12.6831C48.3896 12.6448 47.9407 12.625 47.4616 12.625H43.166V25.9235H46.0794V21.6821H47.4787C47.7969 21.6821 48.0345 21.6768 48.1955 21.6623L49.8166 24.6219L50.5255 25.9195L50.5281 25.9222H53.8085H53.8059ZM47.6054 19.496H46.0636V15.0737H47.6054C48.2866 15.0737 48.849 15.145 49.2806 15.2902C49.5103 15.3642 49.7044 15.4605 49.8641 15.578C50.3327 15.912 50.5651 16.481 50.5651 17.2888C50.5651 18.0558 50.3538 18.6089 49.9327 18.9455C49.9103 18.9614 49.8892 18.9812 49.8641 18.997C49.3981 19.3297 48.6457 19.496 47.6054 19.496Z" fill="white"/>
<path d="M20.7889 16.5657C19.8437 15.4542 18.5052 14.8984 16.7719 14.8984C15.1812 14.8984 13.8862 15.4027 12.8895 16.4126C11.8902 17.4224 11.3926 18.7346 11.3926 20.349C11.3926 22.0005 11.8902 23.3219 12.8895 24.3159C13.8862 25.3125 15.2116 25.8076 16.859 25.8076C18.1263 25.8076 19.1837 25.5449 20.0246 25.0195C20.8681 24.4941 21.478 23.7192 21.8542 22.6975L19.3078 22.3938C18.9197 23.2585 18.1303 23.6941 16.9422 23.6941C16.1039 23.6941 15.4426 23.4565 14.9515 22.98C14.4618 22.5061 14.2043 21.8434 14.1793 20.9946H21.9545C22.1222 19.1531 21.7328 17.6772 20.7889 16.5657ZM14.2426 19.1557C14.3192 18.4217 14.5911 17.8554 15.0532 17.4581C15.5191 17.0607 16.1132 16.8614 16.8432 16.8614C17.5824 16.8614 18.1817 17.0673 18.6372 17.4805C19.0913 17.8937 19.3461 18.4521 19.3975 19.1557H14.2426Z" fill="white"/>
<path d="M27.6705 13.5776C27.9636 13.3228 28.4177 13.1974 29.0342 13.1974C29.4474 13.1974 29.8144 13.2278 30.1378 13.2845L30.5048 11.3216C29.949 11.1962 29.2507 11.1328 28.4072 11.1328C25.7406 11.1328 24.4073 12.3288 24.4073 14.7195V15.1049H22.9922V17.2131H24.4073V25.6048H27.2323V17.2131H30.019V15.1049H27.2323V14.7551C27.2323 14.2244 27.3775 13.8324 27.6705 13.5776Z" fill="white"/>
<path d="M40.0383 16.5657C39.0931 15.4542 37.7545 14.8984 36.0213 14.8984C34.4306 14.8984 33.1356 15.4027 32.1389 16.4126C31.698 16.8561 31.3587 17.3604 31.1119 17.9188C31.0578 18.0442 31.005 18.1736 30.9614 18.3082C30.7476 18.9247 30.6406 19.6058 30.6406 20.3504C30.6406 22.0018 31.1396 23.3232 32.1376 24.3172C33.1343 25.3139 34.4596 25.8089 36.111 25.8089C37.3783 25.8089 38.4331 25.5462 39.2766 25.0208C40.1201 24.4954 40.7274 23.7205 41.1049 22.6988L38.5585 22.3952C38.169 23.2598 37.3809 23.6954 36.1902 23.6954C35.352 23.6954 34.6893 23.4578 34.1996 22.9813C33.7098 22.5074 33.4524 21.8447 33.4273 20.9959H41.2026C41.3715 19.1531 40.9834 17.6772 40.0383 16.5657ZM33.492 19.1557C33.5712 18.4217 33.8431 17.8554 34.3052 17.4581C34.7685 17.0607 35.3652 16.8614 36.0926 16.8614C36.8344 16.8614 37.4311 17.0673 37.8852 17.4805C38.3393 17.8937 38.5941 18.4521 38.6469 19.1557H33.492Z" fill="white"/>
<path d="M52.8994 12.625C54.1971 13.6164 54.8545 15.116 54.8545 17.0908C54.8545 19.0432 54.1429 20.5811 52.7793 21.6108L55.4129 25.9208H56.6339V12.625H52.8994Z" fill="#79BCFF"/>
<path d="M58.2598 25.9169V16.4361H60.7772V17.9582C60.9923 17.4288 61.358 17.0117 61.8741 16.7067C62.389 16.4018 63.0041 16.25 63.7157 16.25C64.9737 16.25 65.9017 16.6157 66.501 17.347C67.1003 18.0783 67.4 19.1938 67.4 20.6947V25.9169H64.8747V20.9297C64.8747 20.0611 64.707 19.4195 64.3731 19.0063C64.0378 18.5931 63.5203 18.3872 62.8193 18.3872C62.1065 18.3872 61.589 18.6103 61.2643 19.0552C60.9408 19.5 60.7785 20.1733 60.7785 21.0749V25.9169H58.2598Z" fill="#79BCFF"/>
<path d="M0 31.9294V27.8438H0.65872L2.76293 30.9235V27.8438H3.41901V31.9294H2.76953L0.653439 28.8325V31.9294H0Z" fill="#79BCFF"/>
<path d="M6.42169 31.9923C5.92006 31.9923 5.51876 31.8392 5.21646 31.5342C4.91416 31.228 4.76367 30.8214 4.76367 30.3158C4.76367 29.8195 4.91416 29.4168 5.21646 29.1066C5.51876 28.7964 5.91082 28.6406 6.39397 28.6406C6.73191 28.6406 7.02365 28.7185 7.27182 28.8743C7.52 29.03 7.70217 29.2479 7.82098 29.5264C7.9411 29.8049 7.98731 30.1231 7.9609 30.4808H5.39599C5.40655 30.791 5.50424 31.0326 5.68641 31.2042C5.8699 31.3758 6.11807 31.4616 6.43225 31.4616C6.87844 31.4616 7.17942 31.3072 7.33519 30.9983L7.91734 31.0894C7.65597 31.6913 7.1583 31.9923 6.42169 31.9923ZM5.41315 29.9805H7.36951C7.34707 29.7218 7.25202 29.5172 7.08305 29.3667C6.91408 29.2162 6.68835 29.1409 6.40585 29.1409C6.12863 29.1409 5.9029 29.2122 5.72997 29.3548C5.5544 29.496 5.45011 29.7059 5.41315 29.9805Z" fill="#79BCFF"/>
<path d="M10.4818 31.9686C10.0594 31.9686 9.75182 31.8683 9.56173 31.6663C9.37031 31.4656 9.27527 31.1224 9.27527 30.638V29.1885H8.80664V28.6988H9.27527V28.106L9.91155 27.9688V28.6988H10.8646V29.1885H9.91155V30.5627C9.91155 30.8954 9.96171 31.1277 10.0607 31.261C10.1597 31.3944 10.3327 31.4604 10.5782 31.4604C10.6138 31.4604 10.6996 31.4511 10.8369 31.4326L10.9227 31.9237C10.7894 31.9541 10.6429 31.9686 10.4818 31.9686Z" fill="#79BCFF"/>
<path d="M12.9063 31.9294L11.6641 28.7031H12.3479L13.2455 31.1902L14.0798 28.7031H14.5762L15.4104 31.1902L16.3081 28.7031H16.9972L15.7444 31.9294H15.1055L14.328 29.5717L13.5478 31.9294H12.9063Z" fill="#79BCFF"/>
<path d="M19.4728 32.0042C19.3039 32.0042 19.1402 31.9831 18.9831 31.9421C18.826 31.9012 18.6781 31.8352 18.5382 31.7468C18.3983 31.6583 18.2768 31.5488 18.1739 31.4194C18.0696 31.29 17.9877 31.1303 17.927 30.9415C17.8663 30.7528 17.8359 30.5442 17.8359 30.3158C17.8359 30.0901 17.8663 29.8828 17.927 29.6954C17.9877 29.5079 18.0696 29.3495 18.1726 29.2215C18.2755 29.0934 18.397 28.9852 18.5382 28.8967C18.6781 28.8083 18.826 28.7436 18.9818 28.7027C19.1375 28.6617 19.2986 28.6406 19.4676 28.6406C19.6365 28.6406 19.7989 28.6617 19.9547 28.7027C20.1104 28.7436 20.2596 28.8083 20.3995 28.8967C20.5395 28.9852 20.6622 29.0934 20.7665 29.2215C20.8695 29.3495 20.9526 29.5079 21.0134 29.6954C21.0741 29.8828 21.1045 30.0888 21.1045 30.3158C21.1045 30.5983 21.0583 30.8504 20.9672 31.0722C20.8748 31.294 20.752 31.4709 20.5962 31.6029C20.4405 31.7349 20.2688 31.8352 20.0788 31.9039C19.8873 31.9699 19.6854 32.0042 19.4728 32.0042ZM19.4728 31.4616C19.7738 31.4616 20.0154 31.3587 20.1989 31.1527C20.381 30.9468 20.4735 30.6683 20.4735 30.3158C20.4735 29.9673 20.3811 29.6901 20.1962 29.4855C20.0114 29.2809 19.7685 29.1779 19.4676 29.1779C19.1666 29.1779 18.925 29.2795 18.7428 29.4828C18.5607 29.6861 18.4696 29.9633 18.4696 30.3158C18.4696 30.6709 18.5607 30.9494 18.7428 31.1541C18.925 31.36 19.1679 31.4616 19.4728 31.4616Z" fill="#79BCFF"/>
<path d="M22.3887 31.9293V28.703H23.0223V29.2429C23.0553 29.1505 23.1002 29.0687 23.157 28.9947C23.2137 28.9208 23.289 28.8548 23.3827 28.7954C23.4764 28.736 23.586 28.6964 23.7101 28.6779C23.8355 28.6594 23.9833 28.6594 24.1536 28.6779L24.0876 29.2891C23.7312 29.2231 23.4645 29.2799 23.2876 29.4581C23.1108 29.6376 23.0223 29.928 23.0223 30.3293V31.9266H22.3887V31.9293Z" fill="#79BCFF"/>
<path d="M28.2319 31.9242H27.3857L25.8954 30.3322V31.9242H25.2617V27.6484H25.8954V30.1803L27.3224 28.6979H28.1619L26.5778 30.249L28.2319 31.9242Z" fill="#79BCFF"/>
<path d="M30.4419 31.9856C30.0789 31.9856 29.7594 31.9104 29.4849 31.7585C29.2103 31.6067 29.0228 31.4048 28.9238 31.1513L29.4994 30.9942C29.5786 31.1394 29.6987 31.2503 29.8598 31.3295C30.0208 31.4074 30.2149 31.447 30.4406 31.447C30.6901 31.447 30.8815 31.4087 31.0148 31.3308C31.1482 31.2543 31.2142 31.1421 31.2142 30.9942C31.2142 30.915 31.1891 30.849 31.1416 30.7962C31.0927 30.7434 31.0267 30.7012 30.9435 30.6721C30.8604 30.6431 30.764 30.618 30.6571 30.5995C30.5502 30.5797 30.4366 30.5612 30.3178 30.5428C30.199 30.5243 30.0802 30.5031 29.9627 30.4807C29.8439 30.4583 29.7317 30.4239 29.6235 30.3791C29.5165 30.3342 29.4202 30.2801 29.337 30.2154C29.2538 30.1507 29.1878 30.0649 29.139 29.9553C29.0902 29.8457 29.0664 29.719 29.0664 29.5738C29.0664 29.3019 29.1931 29.0801 29.4479 28.9072C29.7027 28.7342 30.0182 28.6484 30.397 28.6484C30.6967 28.6484 30.9766 28.7171 31.2353 28.853C31.4953 28.9903 31.6736 29.1672 31.7686 29.3864L31.2036 29.5408C31.1376 29.4233 31.032 29.3309 30.8868 29.2649C30.7416 29.1989 30.5818 29.1659 30.4076 29.1659C30.1819 29.1659 30.005 29.2029 29.8769 29.2768C29.7489 29.3507 29.6855 29.4524 29.6855 29.5857C29.6855 29.6715 29.7159 29.7441 29.7792 29.8009C29.8413 29.8576 29.9231 29.8986 30.0248 29.925C30.1264 29.9514 30.2413 29.9751 30.3706 29.9976C30.5 30.0213 30.6333 30.0398 30.7693 30.057C30.9053 30.0741 31.0373 30.1032 31.168 30.1454C31.2973 30.1876 31.4122 30.2391 31.5138 30.3012C31.6155 30.3632 31.6973 30.4517 31.7594 30.5665C31.8214 30.6827 31.8531 30.82 31.8531 30.9797C31.8531 31.2899 31.7264 31.5354 31.4716 31.7163C31.2168 31.8945 30.8736 31.9856 30.4419 31.9856Z" fill="#79BCFF"/>
<path d="M36.0014 31.9686C35.5789 31.9686 35.2713 31.8683 35.0813 31.6663C34.8898 31.4656 34.7948 31.1224 34.7948 30.638V29.1885H34.3262V28.6988H34.7948V28.106L35.4311 27.9688V28.6988H36.3842V29.1885H35.4311V30.5627C35.4311 30.8954 35.4812 31.1277 35.5802 31.261C35.6793 31.3944 35.8522 31.4604 36.0977 31.4604C36.1334 31.4604 36.2192 31.4511 36.3565 31.4326L36.4423 31.9237C36.3089 31.9541 36.1624 31.9686 36.0014 31.9686Z" fill="white"/>
<path d="M37.5605 31.9242V27.6484H38.1942V29.2853C38.2615 29.0886 38.3856 28.9329 38.5638 28.8154C38.7433 28.6992 38.9717 28.6398 39.2489 28.6398C39.6819 28.6398 40.008 28.7639 40.2258 29.0121C40.4436 29.2603 40.5518 29.647 40.5518 30.1751V31.9242H39.9182V30.2266C39.9182 29.8662 39.8482 29.6035 39.7083 29.4371C39.5684 29.2708 39.3493 29.1877 39.0496 29.1877C38.7579 29.1877 38.5414 29.2801 38.4028 29.4662C38.2628 29.651 38.1929 29.9295 38.1929 30.2978V31.9229H37.5605V31.9242Z" fill="white"/>
<path d="M43.2527 32.0042C43.0494 32.0042 42.858 31.9672 42.6811 31.8959C42.5042 31.8233 42.3471 31.719 42.2098 31.5818C42.0725 31.4445 41.9656 31.2676 41.8864 31.0498C41.8072 30.832 41.7676 30.5877 41.7676 30.3158C41.7676 30.0452 41.8059 29.8023 41.8851 29.5871C41.963 29.372 42.0699 29.1951 42.2072 29.0591C42.3445 28.9231 42.5002 28.8188 42.6771 28.7476C42.8527 28.6763 43.0428 28.6406 43.2474 28.6406C43.5061 28.6406 43.7385 28.7013 43.9457 28.8241C44.1516 28.9469 44.3008 29.1172 44.3932 29.335V28.704H45.0242V31.925H44.3932V31.3164C44.3035 31.5316 44.1543 31.7006 43.947 31.822C43.7398 31.9435 43.5088 32.0042 43.2527 32.0042ZM43.4098 31.4616C43.7094 31.4616 43.951 31.3587 44.1345 31.1514C44.318 30.9455 44.4104 30.6656 44.4104 30.3158C44.4104 29.9673 44.318 29.6901 44.1318 29.4855C43.947 29.2809 43.7028 29.1779 43.3992 29.1779C43.0995 29.1779 42.8593 29.2795 42.6758 29.4842C42.4936 29.6874 42.4012 29.966 42.4012 30.3158C42.4012 30.6709 42.4936 30.9494 42.6771 31.1541C42.8606 31.36 43.1048 31.4616 43.4098 31.4616Z" fill="white"/>
<path d="M47.8412 31.9686C47.4188 31.9686 47.1112 31.8683 46.9211 31.6663C46.7297 31.4656 46.6346 31.1224 46.6346 30.638V29.1885H46.166V28.6988H46.6346V28.106L47.2709 27.9688V28.6988H48.224V29.1885H47.2709V30.5627C47.2709 30.8954 47.3211 31.1277 47.4201 31.261C47.5191 31.3944 47.692 31.4604 47.9376 31.4604C47.9732 31.4604 48.059 31.4511 48.1963 31.4326L48.2821 31.9237C48.1501 31.9541 48.0036 31.9686 47.8412 31.9686Z" fill="white"/>
<path d="M51.9211 31.9241L50.5469 27.8438H51.2518L52.2603 30.9974L53.1923 27.8438H53.7454L54.6827 30.9974L55.6965 27.8438H56.4014L55.0219 31.9241H54.3989L53.4682 28.781L52.5455 31.9241H51.9211Z" fill="white"/>
<path d="M58.6428 32.0042C58.4738 32.0042 58.3101 31.9831 58.153 31.9421C57.9959 31.9012 57.8481 31.8352 57.7081 31.7468C57.5682 31.6583 57.4468 31.5488 57.3438 31.4194C57.2395 31.29 57.1577 31.1303 57.0969 30.9415C57.0362 30.7528 57.0059 30.5442 57.0059 30.3158C57.0059 30.0901 57.0362 29.8828 57.0969 29.6954C57.1577 29.5079 57.2395 29.3495 57.3425 29.2215C57.4454 29.0934 57.5669 28.9852 57.7081 28.8967C57.8481 28.8083 57.9959 28.7436 58.1517 28.7027C58.3075 28.6617 58.4685 28.6406 58.6375 28.6406C58.8064 28.6406 58.9688 28.6617 59.1246 28.7027C59.2804 28.7436 59.4295 28.8083 59.5695 28.8967C59.7094 28.9852 59.8322 29.0934 59.9364 29.2215C60.0394 29.3495 60.1226 29.5079 60.1833 29.6954C60.244 29.8828 60.2744 30.0888 60.2744 30.3158C60.2744 30.5983 60.2282 30.8504 60.1371 31.0722C60.0447 31.294 59.9219 31.4709 59.7661 31.6029C59.6104 31.7349 59.4388 31.8352 59.2487 31.9039C59.0573 31.9699 58.8553 32.0042 58.6428 32.0042ZM58.6428 31.4616C58.9437 31.4616 59.1853 31.3587 59.3688 31.1527C59.551 30.9468 59.6434 30.6683 59.6434 30.3158C59.6434 29.9673 59.551 29.6901 59.3662 29.4855C59.1814 29.2809 58.9385 29.1779 58.6375 29.1779C58.3365 29.1779 58.0949 29.2795 57.9128 29.4828C57.7306 29.6861 57.6395 29.9633 57.6395 30.3158C57.6395 30.6709 57.7306 30.9494 57.9128 31.1541C58.0949 31.3587 58.3378 31.4616 58.6428 31.4616Z" fill="white"/>
<path d="M61.5566 31.9293V28.703H62.1903V29.2429C62.2233 29.1505 62.2682 29.0687 62.3249 28.9947C62.3817 28.9208 62.4569 28.8548 62.5507 28.7954C62.6444 28.736 62.754 28.6964 62.878 28.6779C63.0034 28.6594 63.1513 28.6594 63.3216 28.6779L63.2556 29.2891C62.8992 29.2231 62.6325 29.2799 62.4556 29.4581C62.2787 29.6376 62.1903 29.928 62.1903 30.3293V31.9266H61.5566V31.9293Z" fill="white"/>
<path d="M67.3999 31.9242H66.5537L65.0633 30.3322V31.9242H64.4297V27.6484H65.0633V30.1803L66.4903 28.6979H67.3299L65.7458 30.249L67.3999 31.9242Z" fill="white"/>
<path d="M53.7445 9.78592C53.627 9.78592 53.5095 9.74104 53.4211 9.65127L48.1923 4.42244C48.014 4.24423 48.014 3.95381 48.1923 3.77428C48.3705 3.59607 48.6609 3.59607 48.8404 3.77428L54.0692 9.00312C54.2475 9.18133 54.2475 9.47174 54.0692 9.65127C53.9795 9.74236 53.862 9.78592 53.7445 9.78592Z" fill="white"/>
<path d="M54.9555 10.9952C54.9251 10.9952 54.8961 10.9926 54.8657 10.986C54.8367 10.9794 54.8076 10.9715 54.7799 10.9596C54.7522 10.9477 54.7258 10.9345 54.7007 10.9173C54.6756 10.9002 54.6519 10.8817 54.6307 10.8606C54.5449 10.7748 54.4961 10.6573 54.4961 10.5358C54.4961 10.4157 54.5449 10.2982 54.6307 10.2124C54.6519 10.1913 54.6743 10.1728 54.7007 10.1557C54.7258 10.1385 54.7522 10.1253 54.7799 10.1134C54.8076 10.1015 54.8354 10.0923 54.8657 10.087C55.0149 10.0566 55.172 10.1055 55.2789 10.2124C55.3634 10.2982 55.4135 10.4157 55.4135 10.5358C55.4135 10.656 55.3647 10.7748 55.2789 10.8606C55.1944 10.9464 55.0756 10.9952 54.9555 10.9952Z" fill="white"/>
<path d="M56.1686 9.78033C56.0511 9.78033 55.9336 9.73544 55.8452 9.64568L49.4032 3.20369C49.225 3.02548 49.225 2.73506 49.4032 2.55553C49.5827 2.37732 49.8718 2.37732 50.0513 2.55553L56.4933 8.99752C56.6715 9.17573 56.6715 9.46615 56.4933 9.64568C56.4023 9.73676 56.2848 9.78033 56.1686 9.78033Z" fill="white"/>
<path d="M52.4066 3.60309C52.2891 3.60309 52.1717 3.5582 52.0819 3.46844L50.614 1.99259C50.4358 1.81306 50.4358 1.52396 50.6153 1.34443C50.7948 1.16622 51.0839 1.16622 51.2634 1.34575L52.7314 2.8216C52.9096 3.00113 52.9096 3.29023 52.73 3.46976C52.6403 3.55952 52.5241 3.60309 52.4066 3.60309Z" fill="white"/>
<path d="M57.3645 8.58449C57.2471 8.58449 57.1296 8.53961 57.0398 8.44985L54.7429 6.14103C54.5647 5.9615 54.5647 5.6724 54.7442 5.49287C54.9237 5.31466 55.2128 5.31466 55.3923 5.49419L57.6893 7.80301C57.8675 7.98254 57.8675 8.27164 57.688 8.45117C57.5982 8.53961 57.4807 8.58449 57.3645 8.58449Z" fill="white"/>
<path d="M53.6223 2.38835C53.5048 2.38835 53.3874 2.34347 53.2989 2.2537L51.827 0.781817C51.6488 0.603607 51.6488 0.313189 51.827 0.133658C52.0065 -0.0445527 52.2956 -0.0445527 52.4752 0.133658L53.9471 1.60555C54.1253 1.78376 54.1253 2.07417 53.9471 2.2537C53.8573 2.34479 53.7398 2.38835 53.6223 2.38835Z" fill="white"/>
<path d="M58.5926 7.36063C58.4752 7.36063 58.3577 7.31575 58.2692 7.22598L55.9657 4.92244C55.7875 4.74423 55.7875 4.45381 55.9657 4.27428C56.1452 4.09607 56.4343 4.09607 56.6138 4.27428L58.9174 6.57782C59.0956 6.75603 59.0956 7.04645 58.9174 7.22598C58.8263 7.31575 58.7101 7.36063 58.5926 7.36063Z" fill="white"/>
</svg>
