<svg width="24" height="24" viewBox="0 0 24 24" fill="none" xmlns="http://www.w3.org/2000/svg">
<path d="M12 0C18.6274 0 24 5.37258 24 12C24 18.6274 18.6274 24 12 24C5.37258 24 0 18.6274 0 12C0 5.37258 5.37258 0 12 0Z" fill="#0088FF"/>
<path d="M12 0C18.6274 0 24 5.37258 24 12C24 18.6274 18.6274 24 12 24C5.37258 24 0 18.6274 0 12C0 5.37258 5.37258 0 12 0Z" stroke="#E5E7EB"/>
<path d="M17.25 18H6.75V6H17.25V18Z" stroke="#E5E7EB"/>
<g clip-path="url(#clip0_1_563)">
<path d="M17.0314 8.46973C17.3244 8.7627 17.3244 9.23848 17.0314 9.53145L11.0314 15.5314C10.7385 15.8244 10.2627 15.8244 9.96973 15.5314L6.96973 12.5314C6.67676 12.2385 6.67676 11.7627 6.96973 11.4697C7.2627 11.1768 7.73848 11.1768 8.03145 11.4697L10.5018 13.9377L15.9721 8.46973C16.265 8.17676 16.7408 8.17676 17.0338 8.46973H17.0314Z" fill="white"/>
</g>
<defs>
<clipPath id="clip0_1_563">
<path d="M6.75 6H17.25V18H6.75V6Z" fill="white"/>
</clipPath>
</defs>
</svg>
