<svg width="19" height="11" viewBox="0 0 19 11" fill="none" xmlns="http://www.w3.org/2000/svg">
<path d="M0.663617 0.57285C0.916026 0.320518 1.25832 0.178764 1.61523 0.178764C1.97213 0.178764 2.31443 0.320518 2.56684 0.57285L9.22945 7.23546L15.8921 0.57285C16.1459 0.327668 16.4859 0.192001 16.8388 0.195067C17.1917 0.198134 17.5293 0.339689 17.7789 0.589246C18.0284 0.838801 18.17 1.17639 18.1731 1.5293C18.1761 1.88222 18.0405 2.22221 17.7953 2.47607L10.1811 10.0903C9.92865 10.3426 9.58635 10.4844 9.22945 10.4844C8.87254 10.4844 8.53025 10.3426 8.27784 10.0903L0.663617 2.47607C0.411284 2.22366 0.269531 1.88136 0.269531 1.52446C0.269531 1.16755 0.411284 0.825259 0.663617 0.57285Z" fill="#08498E"/>
</svg>
