<svg width="43" height="44" viewBox="0 0 43 44" fill="none" xmlns="http://www.w3.org/2000/svg">
<path d="M15.7475 31.2007C13.8682 31.2007 12.4808 31.1675 11.2037 31.1354C10.1191 31.1098 9.11361 31.0852 7.94877 31.0852C6.12064 31.0832 4.36793 30.3561 3.07514 29.0636C1.78235 27.771 1.05505 26.0184 1.05279 24.1902C1.04845 23.0681 1.32002 21.9622 1.84359 20.9697C2.36716 19.9772 3.12667 19.1286 4.05527 18.4987C3.90063 17.7462 3.82286 16.98 3.82316 16.2118C3.82316 9.96292 8.90717 4.87891 15.1571 4.87891C19.3415 4.87891 23.1741 7.19361 25.139 10.8411C25.7791 10.1854 26.5444 9.66498 27.3894 9.31055C28.2344 8.95612 29.142 8.77494 30.0583 8.77775C31.1058 8.77875 32.1393 9.0181 33.0806 9.47769C34.0219 9.93727 34.8463 10.605 35.4913 11.4304C36.1363 12.2558 36.585 13.2171 36.8034 14.2416C37.0219 15.266 37.0043 16.3268 36.7521 17.3435C38.1988 17.7515 39.4726 18.6208 40.3799 19.8193C41.2871 21.0177 41.7782 22.4796 41.7784 23.9827C41.7764 25.8111 41.0492 27.5641 39.7565 28.8571C38.4637 30.1501 36.7108 30.8775 34.8824 30.8798C33.1057 30.8798 31.8585 30.8937 30.6263 30.9055C29.4219 30.9183 28.2313 30.9311 26.5787 30.9311C26.4369 30.9311 26.3009 30.8748 26.2006 30.7745C26.1003 30.6742 26.0439 30.5381 26.0439 30.3963C26.0439 30.2545 26.1003 30.1184 26.2006 30.0181C26.3009 29.9178 26.4369 29.8615 26.5787 29.8615C28.2271 29.8615 29.4133 29.8486 30.6145 29.8358C31.8499 29.823 33.1014 29.8101 34.8824 29.8101C36.3336 29.812 37.7332 29.2722 38.8074 28.2964C39.8815 27.3206 40.5529 25.9791 40.69 24.5344C40.8272 23.0897 40.4202 21.6458 39.5488 20.4854C38.6775 19.3249 37.4044 18.5314 35.9788 18.2601C35.9036 18.2457 35.8323 18.2154 35.7699 18.1711C35.7074 18.1267 35.6552 18.0696 35.6168 18.0033C35.5784 17.9371 35.5546 17.8634 35.5471 17.7872C35.5396 17.711 35.5486 17.6341 35.5734 17.5617C35.8729 16.6841 35.9588 15.7478 35.824 14.8305C35.6893 13.9131 35.3377 13.0411 34.7985 12.2867C34.2593 11.5324 33.548 10.9175 32.7236 10.4931C31.8992 10.0687 30.9855 9.84697 30.0583 9.84633C29.1649 9.84361 28.283 10.0478 27.4817 10.4429C26.6803 10.838 25.9814 11.4132 25.4396 12.1236C25.3834 12.1973 25.309 12.2551 25.2237 12.2913C25.1384 12.3275 25.0451 12.3408 24.953 12.3299C24.861 12.319 24.7734 12.2842 24.6989 12.2291C24.6244 12.174 24.5656 12.1004 24.5282 12.0156C23.716 10.2096 22.3999 8.67634 20.7378 7.59981C19.0758 6.52328 17.1384 5.94918 15.1582 5.94641C9.49868 5.94641 4.89387 10.5502 4.89387 16.2096C4.89387 17.0226 4.99014 17.8334 5.17947 18.6185C5.20611 18.7288 5.19694 18.8448 5.15329 18.9496C5.10964 19.0544 5.03377 19.1426 4.93666 19.2014C4.07551 19.7172 3.36336 20.4482 2.87014 21.3225C2.37693 22.1968 2.11962 23.1843 2.1235 24.1881C2.12548 25.7326 2.74 27.2133 3.83225 28.3054C4.9245 29.3974 6.40531 30.0117 7.94984 30.0134C9.12431 30.0134 10.1373 30.0369 11.2304 30.0647C12.5012 30.0947 13.8799 30.1289 15.7486 30.1289C15.8907 30.129 16.027 30.1856 16.1274 30.2862C16.2278 30.3868 16.2841 30.5232 16.284 30.6653C16.2838 30.8074 16.2272 30.9437 16.1266 31.0441C16.026 31.1445 15.8897 31.2008 15.7475 31.2007Z" fill="#08498E"/>
<path d="M28.2091 24.3707C28.0707 24.3707 27.9376 24.317 27.838 24.2209L20.589 17.2308L13.3732 24.1921C13.2709 24.2905 13.1337 24.3443 12.9918 24.3416C12.8499 24.3389 12.7148 24.2799 12.6164 24.1776C12.518 24.0754 12.4642 23.9382 12.4669 23.7962C12.4696 23.6543 12.5286 23.5193 12.6308 23.4209L20.2178 16.1034C20.3174 16.0072 20.4503 15.9533 20.5888 15.9531C20.7272 15.9529 20.8603 16.0064 20.9602 16.1024L28.5792 23.4497C28.6563 23.5236 28.7095 23.6188 28.732 23.7232C28.7545 23.8275 28.7452 23.9362 28.7054 24.0353C28.6656 24.1343 28.5971 24.2192 28.5086 24.279C28.4202 24.3388 28.3159 24.3707 28.2091 24.3707Z" fill="#08498E"/>
<path d="M20.5876 38.6142C20.4457 38.6142 20.3097 38.5579 20.2094 38.4576C20.1091 38.3573 20.0527 38.2212 20.0527 38.0794V16.4919C20.0527 16.35 20.1091 16.214 20.2094 16.1137C20.3097 16.0134 20.4457 15.957 20.5876 15.957C20.7294 15.957 20.8654 16.0134 20.9657 16.1137C21.066 16.214 21.1224 16.35 21.1224 16.4919V38.0805C21.1221 38.2221 21.0656 38.3579 20.9654 38.4579C20.8651 38.558 20.7292 38.6142 20.5876 38.6142Z" fill="#08498E"/>
</svg>
