<svg width="24" height="25" viewBox="0 0 24 25" fill="none" xmlns="http://www.w3.org/2000/svg">
<rect y="0.5" width="24" height="24" rx="12" fill="#08498E"/>
<path d="M16.587 9.90619C16.8513 9.6419 16.9999 9.28342 16.9999 8.90962C17 8.53581 16.8515 8.1773 16.5872 7.91294C16.3229 7.64859 15.9645 7.50005 15.5906 7.5C15.2168 7.49995 14.8583 7.6484 14.594 7.91269L7.92097 14.5872C7.80488 14.7029 7.71902 14.8455 7.67097 15.0022L7.01047 17.1782C6.99754 17.2214 6.99657 17.2674 7.00764 17.3111C7.01872 17.3549 7.04143 17.3948 7.07337 17.4267C7.1053 17.4586 7.14528 17.4812 7.18905 17.4922C7.23282 17.5032 7.27875 17.5022 7.32197 17.4892L9.49847 16.8292C9.65505 16.7816 9.79755 16.6962 9.91347 16.5807L16.587 9.90619Z" stroke="white" stroke-linecap="round" stroke-linejoin="round"/>
</svg>
