<svg width="16" height="14" viewBox="0 0 16 14" fill="none" xmlns="http://www.w3.org/2000/svg">
<path d="M1.57152 9.35891C0.961339 8.5664 0.65625 8.16943 0.65625 6.99286C0.65625 5.81557 0.961339 5.42003 1.57152 4.6268C2.78972 3.04464 4.83274 1.25 7.83482 1.25C10.8369 1.25 12.8799 3.04464 14.0981 4.6268C14.7083 5.42075 15.0134 5.81629 15.0134 6.99286C15.0134 8.17014 14.7083 8.56568 14.0981 9.35891C12.8799 10.9411 10.8369 12.7357 7.83482 12.7357C4.83274 12.7357 2.78972 10.9411 1.57152 9.35891Z" stroke="#08498E" stroke-width="1.07679"/>
<path d="M9.98878 6.99732C9.98878 7.56848 9.76189 8.11625 9.35802 8.52013C8.95414 8.924 8.40637 9.15089 7.83521 9.15089C7.26405 9.15089 6.71628 8.924 6.31241 8.52013C5.90853 8.11625 5.68164 7.56848 5.68164 6.99732C5.68164 6.42616 5.90853 5.87839 6.31241 5.47452C6.71628 5.07064 7.26405 4.84375 7.83521 4.84375C8.40637 4.84375 8.95414 5.07064 9.35802 5.47452C9.76189 5.87839 9.98878 6.42616 9.98878 6.99732Z" stroke="#08498E" stroke-width="1.07679"/>
</svg>
