<svg width="24" height="25" viewBox="0 0 24 25" fill="none" xmlns="http://www.w3.org/2000/svg">
<path d="M18 22.4595H4C3.46957 22.4595 2.96086 22.2488 2.58579 21.8737C2.21071 21.4986 2 20.9899 2 20.4595V6.45947" stroke="#08498E" stroke-width="2" stroke-linecap="round" stroke-linejoin="round"/>
<path d="M22 13.4595L20.704 12.1635C20.252 11.7116 19.6391 11.4578 19 11.4578C18.3609 11.4578 17.748 11.7116 17.296 12.1635L11 18.4595" stroke="#08498E" stroke-width="2" stroke-linecap="round" stroke-linejoin="round"/>
<path d="M12 10.4595C13.1046 10.4595 14 9.56404 14 8.45947C14 7.3549 13.1046 6.45947 12 6.45947C10.8954 6.45947 10 7.3549 10 8.45947C10 9.56404 10.8954 10.4595 12 10.4595Z" stroke="#08498E" stroke-width="2" stroke-linecap="round" stroke-linejoin="round"/>
<path d="M20 2.45947H8C6.89543 2.45947 6 3.3549 6 4.45947V16.4595C6 17.564 6.89543 18.4595 8 18.4595H20C21.1046 18.4595 22 17.564 22 16.4595V4.45947C22 3.3549 21.1046 2.45947 20 2.45947Z" stroke="#08498E" stroke-width="2" stroke-linecap="round" stroke-linejoin="round"/>
</svg>
