<svg width="40" height="40" viewBox="0 0 40 40" fill="none" xmlns="http://www.w3.org/2000/svg">
<path d="M20 0C31.0457 0 40 8.95431 40 20C40 31.0457 31.0457 40 20 40C8.95431 40 0 31.0457 0 20C0 8.95431 8.95431 0 20 0Z" fill="#F5F9FF"/>
<path d="M20 0C31.0457 0 40 8.95431 40 20C40 31.0457 31.0457 40 20 40C8.95431 40 0 31.0457 0 20C0 8.95431 8.95431 0 20 0Z" stroke="#E5E7EB"/>
<g clip-path="url(#clip0_331_593)">
<path d="M22.3948 22.8738C25.3046 22.8738 27.6637 20.5147 27.6637 17.6048C27.6637 14.695 25.3046 12.3359 22.3948 12.3359C19.4849 12.3359 17.1259 14.695 17.1259 17.6048C17.1259 18.1647 17.2127 18.7065 17.3743 19.2125L12.5455 24.0413C12.4108 24.176 12.3359 24.3586 12.3359 24.5502V26.9452C12.3359 27.3433 12.6563 27.6637 13.0544 27.6637H15.4494C15.8475 27.6637 16.1679 27.3433 16.1679 26.9452V25.7477H17.3653C17.7635 25.7477 18.0838 25.4274 18.0838 25.0292V23.8317H19.2813C19.4729 23.8317 19.6555 23.7569 19.7902 23.6222L20.7871 22.6253C21.2931 22.7869 21.8349 22.8738 22.3948 22.8738ZM23.5922 15.2099C23.9098 15.2099 24.2144 15.336 24.439 15.5606C24.6636 15.7852 24.7897 16.0898 24.7897 16.4074C24.7897 16.725 24.6636 17.0295 24.439 17.2541C24.2144 17.4787 23.9098 17.6048 23.5922 17.6048C23.2746 17.6048 22.9701 17.4787 22.7455 17.2541C22.5209 17.0295 22.3948 16.725 22.3948 16.4074C22.3948 16.0898 22.5209 15.7852 22.7455 15.5606C22.9701 15.336 23.2746 15.2099 23.5922 15.2099Z" fill="#08498E"/>
</g>
<defs>
<clipPath id="clip0_331_593">
<path d="M12.3359 12.3359H27.6637V27.6637H12.3359V12.3359Z" fill="white"/>
</clipPath>
</defs>
</svg>
