<svg width="13" height="16" viewBox="0 0 13 16" fill="none" xmlns="http://www.w3.org/2000/svg">
<g clip-path="url(#clip0_934_3990)">
<path d="M7.24062 15.6C8.84375 13.5938 12.5 8.73125 12.5 6C12.5 2.6875 9.8125 0 6.5 0C3.1875 0 0.5 2.6875 0.5 6C0.5 8.73125 4.15625 13.5938 5.75938 15.6C6.14375 16.0781 6.85625 16.0781 7.24062 15.6ZM6.5 4C7.03043 4 7.53914 4.21071 7.91421 4.58579C8.28929 4.96086 8.5 5.46957 8.5 6C8.5 6.53043 8.28929 7.03914 7.91421 7.41421C7.53914 7.78929 7.03043 8 6.5 8C5.96957 8 5.46086 7.78929 5.08579 7.41421C4.71071 7.03914 4.5 6.53043 4.5 6C4.5 5.46957 4.71071 4.96086 5.08579 4.58579C5.46086 4.21071 5.96957 4 6.5 4Z" fill="#9CA3AF"/>
</g>
<defs>
<clipPath id="clip0_934_3990">
<path d="M0.5 0H12.5V16H0.5V0Z" fill="white"/>
</clipPath>
</defs>
</svg>
