<svg width="120" height="154" viewBox="0 0 120 154" fill="none" xmlns="http://www.w3.org/2000/svg">
<path d="M15.1327 152.004C11.3994 152.004 8.22157 150.693 5.59935 148.071C2.97713 145.448 1.66602 142.273 1.66602 138.546V65.4622C1.66602 61.74 2.97713 58.565 5.59935 55.9372C8.22157 53.315 11.3994 52.0039 15.1327 52.0039H26.666V35.3372C26.666 26.0539 29.9021 18.1789 36.3743 11.7122C42.841 5.24002 50.716 2.00391 59.9993 2.00391C69.2827 2.00391 77.1605 5.24002 83.6327 11.7122C90.1049 18.1845 93.3382 26.0595 93.3327 35.3372V52.0039H104.874C108.597 52.0039 111.772 53.315 114.399 55.9372C117.022 58.5595 118.333 61.7372 118.333 65.4706V138.546C118.333 142.268 117.022 145.443 114.399 148.071C111.777 150.693 108.602 152.004 104.874 152.004H15.1327ZM15.1327 143.671H104.874C106.369 143.671 107.597 143.19 108.558 142.229C109.519 141.268 109.999 140.04 109.999 138.546V65.4622C109.999 63.9678 109.519 62.74 108.558 61.7789C107.597 60.8178 106.369 60.3372 104.874 60.3372H15.1243C13.6299 60.3372 12.4021 60.8178 11.441 61.7789C10.4799 62.74 9.99935 63.9706 9.99935 65.4706V138.546C9.99935 140.04 10.4799 141.268 11.441 142.229C12.4021 143.19 13.6327 143.671 15.1327 143.671ZM59.9993 114.504C63.516 114.504 66.4771 113.298 68.8827 110.887C71.2938 108.482 72.4993 105.521 72.4993 102.004C72.4993 98.4872 71.2938 95.5261 68.8827 93.1206C66.4716 90.715 63.5105 89.5095 59.9993 89.5039C56.4882 89.4983 53.5271 90.7039 51.116 93.1206C48.7049 95.5261 47.4993 98.4872 47.4993 102.004C47.4993 105.521 48.7049 108.482 51.116 110.887C53.5216 113.298 56.4827 114.504 59.9993 114.504ZM34.9993 52.0039H84.9993V35.3372C84.9993 28.3928 82.5688 22.49 77.7077 17.6289C72.8466 12.7678 66.9438 10.3372 59.9993 10.3372C53.0549 10.3372 47.1521 12.7678 42.291 17.6289C37.4299 22.49 34.9993 28.3928 34.9993 35.3372V52.0039Z" fill="white"/>
<path d="M9.99935 143.671V60.3372M15.1327 152.004C11.3993 152.004 8.22157 150.693 5.59935 148.071C2.97713 145.448 1.66602 142.273 1.66602 138.546V65.4622C1.66602 61.74 2.97713 58.565 5.59935 55.9372C8.22157 53.315 11.3993 52.0039 15.1327 52.0039H26.666V35.3372C26.666 26.0539 29.9021 18.1789 36.3743 11.7122C42.841 5.24002 50.716 2.00391 59.9993 2.00391C69.2827 2.00391 77.1605 5.24002 83.6327 11.7122C90.1049 18.1845 93.3382 26.0595 93.3327 35.3372V52.0039H104.874C108.597 52.0039 111.772 53.315 114.399 55.9372C117.022 58.5595 118.333 61.7372 118.333 65.4706V138.546C118.333 142.268 117.022 145.443 114.399 148.071C111.777 150.693 108.602 152.004 104.874 152.004H15.1327ZM15.1327 143.671H104.874C106.369 143.671 107.597 143.19 108.558 142.229C109.519 141.268 109.999 140.04 109.999 138.546V65.4622C109.999 63.9678 109.519 62.74 108.558 61.7789C107.597 60.8178 106.369 60.3372 104.874 60.3372H15.1243C13.6299 60.3372 12.4021 60.8178 11.441 61.7789C10.4799 62.74 9.99935 63.9706 9.99935 65.4706V138.546C9.99935 140.04 10.4799 141.268 11.441 142.229C12.4021 143.19 13.6327 143.671 15.1327 143.671ZM59.9993 114.504C63.516 114.504 66.4771 113.298 68.8827 110.887C71.2938 108.482 72.4993 105.521 72.4993 102.004C72.4993 98.4872 71.2938 95.5261 68.8827 93.1206C66.4716 90.715 63.5105 89.5095 59.9993 89.5039C56.4882 89.4983 53.5271 90.7039 51.116 93.1206C48.7049 95.5261 47.4993 98.4872 47.4993 102.004C47.4993 105.521 48.7049 108.482 51.116 110.887C53.5216 113.298 56.4827 114.504 59.9993 114.504ZM34.9993 52.0039H84.9993V35.3372C84.9993 28.3928 82.5688 22.49 77.7077 17.6289C72.8466 12.7678 66.9438 10.3372 59.9993 10.3372C53.0549 10.3372 47.1521 12.7678 42.291 17.6289C37.4299 22.49 34.9993 28.3928 34.9993 35.3372V52.0039Z" stroke="white" stroke-width="3"/>
</svg>
