<svg width="17" height="16" viewBox="0 0 17 16" fill="none" xmlns="http://www.w3.org/2000/svg">
<path d="M16.0662 0.175083C16.3818 0.393788 16.5474 0.771834 16.4881 1.14988L14.488 14.1472C14.4412 14.4502 14.2568 14.7158 13.988 14.8658C13.7193 15.0158 13.3974 15.0345 13.113 14.9158L9.37546 13.363L7.2348 15.6781C6.95668 15.9812 6.51917 16.0812 6.13479 15.9312C5.75041 15.7812 5.5004 15.4094 5.5004 14.997V12.3851C5.5004 12.2601 5.54728 12.1414 5.63165 12.0507L10.8692 6.33631C11.0505 6.13947 11.0442 5.83641 10.8567 5.64895C10.6692 5.46149 10.3661 5.44899 10.1692 5.62708L3.81288 11.2728L1.05346 9.89182C0.722204 9.72623 0.509701 9.39505 0.500325 9.02637C0.49095 8.6577 0.684703 8.31402 1.00346 8.12968L15.0037 0.131342C15.3381 -0.0592432 15.7506 -0.0404971 16.0662 0.175083Z" fill="white"/>
</svg>
