<svg width="10" height="9" viewBox="0 0 10 9" fill="none" xmlns="http://www.w3.org/2000/svg">
<path d="M4.70189 0.494599C4.83374 0.0888142 5.40782 0.0888134 5.53966 0.494599L6.25796 2.7053C6.31693 2.88677 6.48604 3.00963 6.67685 3.00963L9.00132 3.00963C9.42798 3.00963 9.60538 3.55561 9.2602 3.8064L7.37967 5.17269C7.2253 5.28485 7.1607 5.48365 7.21967 5.66512L7.93797 7.87582C8.06981 8.2816 7.60538 8.61904 7.26019 8.36825L5.37966 7.00196C5.22529 6.88981 5.01626 6.88981 4.86189 7.00196L2.98136 8.36825C2.63618 8.61904 2.17174 8.2816 2.30359 7.87582L3.02189 5.66512C3.08085 5.48365 3.01625 5.28485 2.86189 5.17269L0.981354 3.8064C0.636173 3.55562 0.813572 3.00963 1.24024 3.00963L3.5647 3.00963C3.75552 3.00963 3.92463 2.88677 3.98359 2.7053L4.70189 0.494599Z" fill="#E8CD00"/>
</svg>
